<mxfile host="app.diagrams.net" agent="Mozilla/5.0 (Windows NT 10.0; Win64; x64) AppleWebKit/537.36 (KHTML, like Gecko) Chrome/130.0.0.0 Safari/537.36" version="26.0.6">
  <diagram name="Página-1" id="UafZZl_CcEjMIetHrHQl">
    <mxGraphModel dx="794" dy="459" grid="1" gridSize="10" guides="1" tooltips="1" connect="1" arrows="1" fold="1" page="1" pageScale="1" pageWidth="827" pageHeight="1169" math="0" shadow="0">
      <root>
        <mxCell id="0" />
        <mxCell id="1" parent="0" />
        <mxCell id="YZ39Nb8B40ybX0shpPyo-1" value="empleados" style="rounded=0;whiteSpace=wrap;html=1;" parent="1" vertex="1">
          <mxGeometry x="120" y="120" width="140" height="70" as="geometry" />
        </mxCell>
        <mxCell id="YZ39Nb8B40ybX0shpPyo-3" value="" style="endArrow=none;html=1;rounded=0;" parent="1" edge="1">
          <mxGeometry width="50" height="50" relative="1" as="geometry">
            <mxPoint x="189.71" y="120" as="sourcePoint" />
            <mxPoint x="189.71" y="70" as="targetPoint" />
          </mxGeometry>
        </mxCell>
        <mxCell id="YZ39Nb8B40ybX0shpPyo-4" value="" style="endArrow=none;html=1;rounded=0;" parent="1" edge="1">
          <mxGeometry width="50" height="50" relative="1" as="geometry">
            <mxPoint x="190" y="120" as="sourcePoint" />
            <mxPoint x="132.17598451516835" y="93.79843881247507" as="targetPoint" />
          </mxGeometry>
        </mxCell>
        <mxCell id="YZ39Nb8B40ybX0shpPyo-5" value="" style="endArrow=none;html=1;rounded=0;" parent="1" edge="1">
          <mxGeometry width="50" height="50" relative="1" as="geometry">
            <mxPoint x="190" y="120" as="sourcePoint" />
            <mxPoint x="248.76355222887798" y="95.81480690701835" as="targetPoint" />
          </mxGeometry>
        </mxCell>
        <mxCell id="YZ39Nb8B40ybX0shpPyo-7" value="" style="ellipse;whiteSpace=wrap;html=1;" parent="1" vertex="1">
          <mxGeometry x="140" y="20" width="100" height="60" as="geometry" />
        </mxCell>
        <mxCell id="YZ39Nb8B40ybX0shpPyo-9" value="" style="ellipse;whiteSpace=wrap;html=1;" parent="1" vertex="1">
          <mxGeometry x="240" y="50" width="100" height="60" as="geometry" />
        </mxCell>
        <mxCell id="YZ39Nb8B40ybX0shpPyo-10" value="" style="ellipse;whiteSpace=wrap;html=1;" parent="1" vertex="1">
          <mxGeometry x="50" y="50" width="100" height="60" as="geometry" />
        </mxCell>
        <mxCell id="YZ39Nb8B40ybX0shpPyo-11" value="&lt;font style=&quot;vertical-align: inherit;&quot;&gt;&lt;font style=&quot;vertical-align: inherit;&quot;&gt;categoría&lt;/font&gt;&lt;/font&gt;&lt;div&gt;&lt;font style=&quot;vertical-align: inherit;&quot;&gt;&lt;font style=&quot;vertical-align: inherit;&quot;&gt;&lt;font style=&quot;vertical-align: inherit;&quot;&gt;&lt;font style=&quot;vertical-align: inherit;&quot;&gt;equipo&lt;/font&gt;&lt;/font&gt;&lt;/font&gt;&lt;/font&gt;&lt;/div&gt;" style="rounded=0;whiteSpace=wrap;html=1;" parent="1" vertex="1">
          <mxGeometry x="430" y="120" width="140" height="70" as="geometry" />
        </mxCell>
        <mxCell id="YZ39Nb8B40ybX0shpPyo-12" value="" style="endArrow=none;html=1;rounded=0;" parent="1" edge="1">
          <mxGeometry width="50" height="50" relative="1" as="geometry">
            <mxPoint x="499.71000000000004" y="120" as="sourcePoint" />
            <mxPoint x="499.71000000000004" y="70" as="targetPoint" />
          </mxGeometry>
        </mxCell>
        <mxCell id="YZ39Nb8B40ybX0shpPyo-13" value="" style="endArrow=none;html=1;rounded=0;" parent="1" edge="1">
          <mxGeometry width="50" height="50" relative="1" as="geometry">
            <mxPoint x="500" y="120" as="sourcePoint" />
            <mxPoint x="442.17598451516835" y="93.79843881247507" as="targetPoint" />
          </mxGeometry>
        </mxCell>
        <mxCell id="YZ39Nb8B40ybX0shpPyo-14" value="" style="endArrow=none;html=1;rounded=0;" parent="1" edge="1">
          <mxGeometry width="50" height="50" relative="1" as="geometry">
            <mxPoint x="500" y="120" as="sourcePoint" />
            <mxPoint x="558.763552228878" y="95.81480690701835" as="targetPoint" />
          </mxGeometry>
        </mxCell>
        <mxCell id="YZ39Nb8B40ybX0shpPyo-15" value="" style="ellipse;whiteSpace=wrap;html=1;" parent="1" vertex="1">
          <mxGeometry x="450" y="20" width="100" height="60" as="geometry" />
        </mxCell>
        <mxCell id="YZ39Nb8B40ybX0shpPyo-16" value="" style="ellipse;whiteSpace=wrap;html=1;" parent="1" vertex="1">
          <mxGeometry x="550" y="50" width="100" height="60" as="geometry" />
        </mxCell>
        <mxCell id="YZ39Nb8B40ybX0shpPyo-17" value="" style="ellipse;whiteSpace=wrap;html=1;" parent="1" vertex="1">
          <mxGeometry x="360" y="50" width="100" height="60" as="geometry" />
        </mxCell>
        <mxCell id="YZ39Nb8B40ybX0shpPyo-18" value="infrasctucturas" style="rounded=0;whiteSpace=wrap;html=1;" parent="1" vertex="1">
          <mxGeometry x="120" y="330" width="140" height="70" as="geometry" />
        </mxCell>
        <mxCell id="YZ39Nb8B40ybX0shpPyo-19" value="" style="endArrow=none;html=1;rounded=0;" parent="1" edge="1">
          <mxGeometry width="50" height="50" relative="1" as="geometry">
            <mxPoint x="189.71" y="330" as="sourcePoint" />
            <mxPoint x="189.71" y="280" as="targetPoint" />
          </mxGeometry>
        </mxCell>
        <mxCell id="YZ39Nb8B40ybX0shpPyo-20" value="" style="endArrow=none;html=1;rounded=0;" parent="1" edge="1">
          <mxGeometry width="50" height="50" relative="1" as="geometry">
            <mxPoint x="190" y="330" as="sourcePoint" />
            <mxPoint x="132.17598451516835" y="303.79843881247507" as="targetPoint" />
          </mxGeometry>
        </mxCell>
        <mxCell id="YZ39Nb8B40ybX0shpPyo-21" value="" style="endArrow=none;html=1;rounded=0;" parent="1" edge="1">
          <mxGeometry width="50" height="50" relative="1" as="geometry">
            <mxPoint x="190" y="330" as="sourcePoint" />
            <mxPoint x="248.76355222887798" y="305.81480690701835" as="targetPoint" />
          </mxGeometry>
        </mxCell>
        <mxCell id="YZ39Nb8B40ybX0shpPyo-22" value="" style="ellipse;whiteSpace=wrap;html=1;" parent="1" vertex="1">
          <mxGeometry x="140" y="230" width="100" height="60" as="geometry" />
        </mxCell>
        <mxCell id="YZ39Nb8B40ybX0shpPyo-23" value="" style="ellipse;whiteSpace=wrap;html=1;" parent="1" vertex="1">
          <mxGeometry x="240" y="260" width="100" height="60" as="geometry" />
        </mxCell>
        <mxCell id="YZ39Nb8B40ybX0shpPyo-24" value="" style="ellipse;whiteSpace=wrap;html=1;" parent="1" vertex="1">
          <mxGeometry x="50" y="260" width="100" height="60" as="geometry" />
        </mxCell>
        <mxCell id="YZ39Nb8B40ybX0shpPyo-25" value="&lt;font style=&quot;vertical-align: inherit;&quot;&gt;&lt;font style=&quot;vertical-align: inherit;&quot;&gt;equipo&lt;/font&gt;&lt;/font&gt;" style="rounded=0;whiteSpace=wrap;html=1;" parent="1" vertex="1">
          <mxGeometry x="440" y="330" width="140" height="70" as="geometry" />
        </mxCell>
        <mxCell id="YZ39Nb8B40ybX0shpPyo-26" value="" style="endArrow=none;html=1;rounded=0;" parent="1" edge="1">
          <mxGeometry width="50" height="50" relative="1" as="geometry">
            <mxPoint x="509.71000000000004" y="330" as="sourcePoint" />
            <mxPoint x="509.71000000000004" y="280" as="targetPoint" />
          </mxGeometry>
        </mxCell>
        <mxCell id="YZ39Nb8B40ybX0shpPyo-27" value="" style="endArrow=none;html=1;rounded=0;" parent="1" edge="1">
          <mxGeometry width="50" height="50" relative="1" as="geometry">
            <mxPoint x="510" y="330" as="sourcePoint" />
            <mxPoint x="452.17598451516835" y="303.79843881247507" as="targetPoint" />
          </mxGeometry>
        </mxCell>
        <mxCell id="YZ39Nb8B40ybX0shpPyo-28" value="" style="endArrow=none;html=1;rounded=0;" parent="1" edge="1">
          <mxGeometry width="50" height="50" relative="1" as="geometry">
            <mxPoint x="510" y="330" as="sourcePoint" />
            <mxPoint x="568.763552228878" y="305.81480690701835" as="targetPoint" />
          </mxGeometry>
        </mxCell>
        <mxCell id="YZ39Nb8B40ybX0shpPyo-29" value="" style="ellipse;whiteSpace=wrap;html=1;" parent="1" vertex="1">
          <mxGeometry x="460" y="230" width="100" height="60" as="geometry" />
        </mxCell>
        <mxCell id="YZ39Nb8B40ybX0shpPyo-30" value="" style="ellipse;whiteSpace=wrap;html=1;" parent="1" vertex="1">
          <mxGeometry x="560" y="260" width="100" height="60" as="geometry" />
        </mxCell>
        <mxCell id="YZ39Nb8B40ybX0shpPyo-31" value="" style="ellipse;whiteSpace=wrap;html=1;" parent="1" vertex="1">
          <mxGeometry x="370" y="260" width="100" height="60" as="geometry" />
        </mxCell>
        <mxCell id="YZ39Nb8B40ybX0shpPyo-32" value="" style="rounded=0;whiteSpace=wrap;html=1;" parent="1" vertex="1">
          <mxGeometry x="760" y="120" width="140" height="70" as="geometry" />
        </mxCell>
        <mxCell id="YZ39Nb8B40ybX0shpPyo-33" value="" style="endArrow=none;html=1;rounded=0;" parent="1" edge="1">
          <mxGeometry width="50" height="50" relative="1" as="geometry">
            <mxPoint x="829.71" y="120" as="sourcePoint" />
            <mxPoint x="829.71" y="70" as="targetPoint" />
          </mxGeometry>
        </mxCell>
        <mxCell id="YZ39Nb8B40ybX0shpPyo-34" value="" style="endArrow=none;html=1;rounded=0;" parent="1" edge="1">
          <mxGeometry width="50" height="50" relative="1" as="geometry">
            <mxPoint x="830" y="120" as="sourcePoint" />
            <mxPoint x="772.1759845151684" y="93.79843881247507" as="targetPoint" />
          </mxGeometry>
        </mxCell>
        <mxCell id="YZ39Nb8B40ybX0shpPyo-35" value="" style="endArrow=none;html=1;rounded=0;" parent="1" edge="1">
          <mxGeometry width="50" height="50" relative="1" as="geometry">
            <mxPoint x="830" y="120" as="sourcePoint" />
            <mxPoint x="888.763552228878" y="95.81480690701835" as="targetPoint" />
          </mxGeometry>
        </mxCell>
        <mxCell id="YZ39Nb8B40ybX0shpPyo-36" value="" style="ellipse;whiteSpace=wrap;html=1;" parent="1" vertex="1">
          <mxGeometry x="780" y="20" width="100" height="60" as="geometry" />
        </mxCell>
        <mxCell id="YZ39Nb8B40ybX0shpPyo-37" value="" style="ellipse;whiteSpace=wrap;html=1;" parent="1" vertex="1">
          <mxGeometry x="880" y="50" width="100" height="60" as="geometry" />
        </mxCell>
        <mxCell id="YZ39Nb8B40ybX0shpPyo-38" value="" style="ellipse;whiteSpace=wrap;html=1;" parent="1" vertex="1">
          <mxGeometry x="690" y="50" width="100" height="60" as="geometry" />
        </mxCell>
        <mxCell id="YZ39Nb8B40ybX0shpPyo-39" value="" style="rounded=0;whiteSpace=wrap;html=1;" parent="1" vertex="1">
          <mxGeometry x="1080" y="120" width="140" height="70" as="geometry" />
        </mxCell>
        <mxCell id="YZ39Nb8B40ybX0shpPyo-40" value="" style="endArrow=none;html=1;rounded=0;" parent="1" edge="1">
          <mxGeometry width="50" height="50" relative="1" as="geometry">
            <mxPoint x="1149.71" y="120" as="sourcePoint" />
            <mxPoint x="1149.71" y="70" as="targetPoint" />
          </mxGeometry>
        </mxCell>
        <mxCell id="YZ39Nb8B40ybX0shpPyo-41" value="" style="endArrow=none;html=1;rounded=0;" parent="1" edge="1">
          <mxGeometry width="50" height="50" relative="1" as="geometry">
            <mxPoint x="1150" y="120" as="sourcePoint" />
            <mxPoint x="1092.1759845151682" y="93.79843881247507" as="targetPoint" />
          </mxGeometry>
        </mxCell>
        <mxCell id="YZ39Nb8B40ybX0shpPyo-42" value="" style="endArrow=none;html=1;rounded=0;" parent="1" edge="1">
          <mxGeometry width="50" height="50" relative="1" as="geometry">
            <mxPoint x="1150" y="120" as="sourcePoint" />
            <mxPoint x="1208.7635522288779" y="95.81480690701835" as="targetPoint" />
          </mxGeometry>
        </mxCell>
        <mxCell id="YZ39Nb8B40ybX0shpPyo-43" value="" style="ellipse;whiteSpace=wrap;html=1;" parent="1" vertex="1">
          <mxGeometry x="1100" y="20" width="100" height="60" as="geometry" />
        </mxCell>
        <mxCell id="YZ39Nb8B40ybX0shpPyo-44" value="" style="ellipse;whiteSpace=wrap;html=1;" parent="1" vertex="1">
          <mxGeometry x="1200" y="50" width="100" height="60" as="geometry" />
        </mxCell>
        <mxCell id="YZ39Nb8B40ybX0shpPyo-45" value="" style="ellipse;whiteSpace=wrap;html=1;" parent="1" vertex="1">
          <mxGeometry x="1010" y="50" width="100" height="60" as="geometry" />
        </mxCell>
        <mxCell id="YZ39Nb8B40ybX0shpPyo-53" value="" style="rounded=0;whiteSpace=wrap;html=1;" parent="1" vertex="1">
          <mxGeometry x="1390" y="120" width="140" height="70" as="geometry" />
        </mxCell>
        <mxCell id="YZ39Nb8B40ybX0shpPyo-54" value="" style="endArrow=none;html=1;rounded=0;" parent="1" edge="1">
          <mxGeometry width="50" height="50" relative="1" as="geometry">
            <mxPoint x="1459.71" y="120" as="sourcePoint" />
            <mxPoint x="1459.71" y="70" as="targetPoint" />
          </mxGeometry>
        </mxCell>
        <mxCell id="YZ39Nb8B40ybX0shpPyo-55" value="" style="endArrow=none;html=1;rounded=0;" parent="1" edge="1">
          <mxGeometry width="50" height="50" relative="1" as="geometry">
            <mxPoint x="1460" y="120" as="sourcePoint" />
            <mxPoint x="1402.1759845151682" y="93.79843881247507" as="targetPoint" />
          </mxGeometry>
        </mxCell>
        <mxCell id="YZ39Nb8B40ybX0shpPyo-56" value="" style="endArrow=none;html=1;rounded=0;" parent="1" edge="1">
          <mxGeometry width="50" height="50" relative="1" as="geometry">
            <mxPoint x="1460" y="120" as="sourcePoint" />
            <mxPoint x="1518.7635522288779" y="95.81480690701835" as="targetPoint" />
          </mxGeometry>
        </mxCell>
        <mxCell id="YZ39Nb8B40ybX0shpPyo-57" value="" style="ellipse;whiteSpace=wrap;html=1;" parent="1" vertex="1">
          <mxGeometry x="1410" y="20" width="100" height="60" as="geometry" />
        </mxCell>
        <mxCell id="YZ39Nb8B40ybX0shpPyo-58" value="" style="ellipse;whiteSpace=wrap;html=1;" parent="1" vertex="1">
          <mxGeometry x="1510" y="50" width="100" height="60" as="geometry" />
        </mxCell>
        <mxCell id="YZ39Nb8B40ybX0shpPyo-59" value="" style="ellipse;whiteSpace=wrap;html=1;" parent="1" vertex="1">
          <mxGeometry x="1320" y="50" width="100" height="60" as="geometry" />
        </mxCell>
        <mxCell id="YZ39Nb8B40ybX0shpPyo-60" value="" style="rounded=0;whiteSpace=wrap;html=1;" parent="1" vertex="1">
          <mxGeometry x="1724" y="120" width="140" height="70" as="geometry" />
        </mxCell>
        <mxCell id="YZ39Nb8B40ybX0shpPyo-61" value="" style="endArrow=none;html=1;rounded=0;" parent="1" edge="1">
          <mxGeometry width="50" height="50" relative="1" as="geometry">
            <mxPoint x="1793.71" y="120" as="sourcePoint" />
            <mxPoint x="1793.71" y="70" as="targetPoint" />
          </mxGeometry>
        </mxCell>
        <mxCell id="YZ39Nb8B40ybX0shpPyo-62" value="" style="endArrow=none;html=1;rounded=0;" parent="1" edge="1">
          <mxGeometry width="50" height="50" relative="1" as="geometry">
            <mxPoint x="1794" y="120" as="sourcePoint" />
            <mxPoint x="1736.1759845151682" y="93.79843881247507" as="targetPoint" />
          </mxGeometry>
        </mxCell>
        <mxCell id="YZ39Nb8B40ybX0shpPyo-63" value="" style="endArrow=none;html=1;rounded=0;" parent="1" edge="1">
          <mxGeometry width="50" height="50" relative="1" as="geometry">
            <mxPoint x="1794" y="120" as="sourcePoint" />
            <mxPoint x="1852.7635522288779" y="95.81480690701835" as="targetPoint" />
          </mxGeometry>
        </mxCell>
        <mxCell id="YZ39Nb8B40ybX0shpPyo-64" value="" style="ellipse;whiteSpace=wrap;html=1;" parent="1" vertex="1">
          <mxGeometry x="1744" y="20" width="100" height="60" as="geometry" />
        </mxCell>
        <mxCell id="YZ39Nb8B40ybX0shpPyo-65" value="" style="ellipse;whiteSpace=wrap;html=1;" parent="1" vertex="1">
          <mxGeometry x="1844" y="50" width="100" height="60" as="geometry" />
        </mxCell>
        <mxCell id="YZ39Nb8B40ybX0shpPyo-66" value="" style="ellipse;whiteSpace=wrap;html=1;" parent="1" vertex="1">
          <mxGeometry x="1654" y="50" width="100" height="60" as="geometry" />
        </mxCell>
        <mxCell id="YZ39Nb8B40ybX0shpPyo-67" value="" style="rounded=0;whiteSpace=wrap;html=1;" parent="1" vertex="1">
          <mxGeometry x="770" y="330" width="140" height="70" as="geometry" />
        </mxCell>
        <mxCell id="YZ39Nb8B40ybX0shpPyo-68" value="" style="endArrow=none;html=1;rounded=0;" parent="1" edge="1">
          <mxGeometry width="50" height="50" relative="1" as="geometry">
            <mxPoint x="839.71" y="330" as="sourcePoint" />
            <mxPoint x="839.71" y="280" as="targetPoint" />
          </mxGeometry>
        </mxCell>
        <mxCell id="YZ39Nb8B40ybX0shpPyo-69" value="" style="endArrow=none;html=1;rounded=0;" parent="1" edge="1">
          <mxGeometry width="50" height="50" relative="1" as="geometry">
            <mxPoint x="840" y="330" as="sourcePoint" />
            <mxPoint x="782.1759845151684" y="303.79843881247507" as="targetPoint" />
          </mxGeometry>
        </mxCell>
        <mxCell id="YZ39Nb8B40ybX0shpPyo-70" value="" style="endArrow=none;html=1;rounded=0;" parent="1" edge="1">
          <mxGeometry width="50" height="50" relative="1" as="geometry">
            <mxPoint x="840" y="330" as="sourcePoint" />
            <mxPoint x="898.763552228878" y="305.81480690701835" as="targetPoint" />
          </mxGeometry>
        </mxCell>
        <mxCell id="YZ39Nb8B40ybX0shpPyo-71" value="" style="ellipse;whiteSpace=wrap;html=1;" parent="1" vertex="1">
          <mxGeometry x="790" y="230" width="100" height="60" as="geometry" />
        </mxCell>
        <mxCell id="YZ39Nb8B40ybX0shpPyo-72" value="" style="ellipse;whiteSpace=wrap;html=1;" parent="1" vertex="1">
          <mxGeometry x="890" y="260" width="100" height="60" as="geometry" />
        </mxCell>
        <mxCell id="YZ39Nb8B40ybX0shpPyo-73" value="" style="ellipse;whiteSpace=wrap;html=1;" parent="1" vertex="1">
          <mxGeometry x="700" y="260" width="100" height="60" as="geometry" />
        </mxCell>
        <mxCell id="YZ39Nb8B40ybX0shpPyo-74" value="" style="rounded=0;whiteSpace=wrap;html=1;" parent="1" vertex="1">
          <mxGeometry x="1080" y="320" width="140" height="70" as="geometry" />
        </mxCell>
        <mxCell id="YZ39Nb8B40ybX0shpPyo-75" value="" style="endArrow=none;html=1;rounded=0;" parent="1" edge="1">
          <mxGeometry width="50" height="50" relative="1" as="geometry">
            <mxPoint x="1149.71" y="320" as="sourcePoint" />
            <mxPoint x="1149.71" y="270" as="targetPoint" />
          </mxGeometry>
        </mxCell>
        <mxCell id="YZ39Nb8B40ybX0shpPyo-76" value="" style="endArrow=none;html=1;rounded=0;" parent="1" edge="1">
          <mxGeometry width="50" height="50" relative="1" as="geometry">
            <mxPoint x="1150" y="320" as="sourcePoint" />
            <mxPoint x="1092.1759845151682" y="293.79843881247507" as="targetPoint" />
          </mxGeometry>
        </mxCell>
        <mxCell id="YZ39Nb8B40ybX0shpPyo-77" value="" style="endArrow=none;html=1;rounded=0;" parent="1" edge="1">
          <mxGeometry width="50" height="50" relative="1" as="geometry">
            <mxPoint x="1150" y="320" as="sourcePoint" />
            <mxPoint x="1208.7635522288779" y="295.81480690701835" as="targetPoint" />
          </mxGeometry>
        </mxCell>
        <mxCell id="YZ39Nb8B40ybX0shpPyo-78" value="" style="ellipse;whiteSpace=wrap;html=1;" parent="1" vertex="1">
          <mxGeometry x="1100" y="220" width="100" height="60" as="geometry" />
        </mxCell>
        <mxCell id="YZ39Nb8B40ybX0shpPyo-79" value="" style="ellipse;whiteSpace=wrap;html=1;" parent="1" vertex="1">
          <mxGeometry x="1200" y="250" width="100" height="60" as="geometry" />
        </mxCell>
        <mxCell id="YZ39Nb8B40ybX0shpPyo-80" value="" style="ellipse;whiteSpace=wrap;html=1;" parent="1" vertex="1">
          <mxGeometry x="1010" y="250" width="100" height="60" as="geometry" />
        </mxCell>
        <mxCell id="YZ39Nb8B40ybX0shpPyo-81" value="" style="rounded=0;whiteSpace=wrap;html=1;" parent="1" vertex="1">
          <mxGeometry x="1400" y="320" width="140" height="70" as="geometry" />
        </mxCell>
        <mxCell id="YZ39Nb8B40ybX0shpPyo-82" value="" style="endArrow=none;html=1;rounded=0;" parent="1" edge="1">
          <mxGeometry width="50" height="50" relative="1" as="geometry">
            <mxPoint x="1469.71" y="320" as="sourcePoint" />
            <mxPoint x="1469.71" y="270" as="targetPoint" />
          </mxGeometry>
        </mxCell>
        <mxCell id="YZ39Nb8B40ybX0shpPyo-83" value="" style="endArrow=none;html=1;rounded=0;" parent="1" edge="1">
          <mxGeometry width="50" height="50" relative="1" as="geometry">
            <mxPoint x="1470" y="320" as="sourcePoint" />
            <mxPoint x="1412.1759845151682" y="293.79843881247507" as="targetPoint" />
          </mxGeometry>
        </mxCell>
        <mxCell id="YZ39Nb8B40ybX0shpPyo-84" value="" style="endArrow=none;html=1;rounded=0;" parent="1" edge="1">
          <mxGeometry width="50" height="50" relative="1" as="geometry">
            <mxPoint x="1470" y="320" as="sourcePoint" />
            <mxPoint x="1528.7635522288779" y="295.81480690701835" as="targetPoint" />
          </mxGeometry>
        </mxCell>
        <mxCell id="YZ39Nb8B40ybX0shpPyo-85" value="" style="ellipse;whiteSpace=wrap;html=1;" parent="1" vertex="1">
          <mxGeometry x="1420" y="220" width="100" height="60" as="geometry" />
        </mxCell>
        <mxCell id="YZ39Nb8B40ybX0shpPyo-86" value="" style="ellipse;whiteSpace=wrap;html=1;" parent="1" vertex="1">
          <mxGeometry x="1520" y="250" width="100" height="60" as="geometry" />
        </mxCell>
        <mxCell id="YZ39Nb8B40ybX0shpPyo-87" value="" style="ellipse;whiteSpace=wrap;html=1;" parent="1" vertex="1">
          <mxGeometry x="1330" y="250" width="100" height="60" as="geometry" />
        </mxCell>
        <mxCell id="YZ39Nb8B40ybX0shpPyo-88" value="" style="rounded=0;whiteSpace=wrap;html=1;" parent="1" vertex="1">
          <mxGeometry x="1719" y="320" width="140" height="70" as="geometry" />
        </mxCell>
        <mxCell id="YZ39Nb8B40ybX0shpPyo-89" value="" style="endArrow=none;html=1;rounded=0;" parent="1" edge="1">
          <mxGeometry width="50" height="50" relative="1" as="geometry">
            <mxPoint x="1788.71" y="320" as="sourcePoint" />
            <mxPoint x="1788.71" y="270" as="targetPoint" />
          </mxGeometry>
        </mxCell>
        <mxCell id="YZ39Nb8B40ybX0shpPyo-90" value="" style="endArrow=none;html=1;rounded=0;" parent="1" edge="1">
          <mxGeometry width="50" height="50" relative="1" as="geometry">
            <mxPoint x="1789" y="320" as="sourcePoint" />
            <mxPoint x="1731.1759845151682" y="293.79843881247507" as="targetPoint" />
          </mxGeometry>
        </mxCell>
        <mxCell id="YZ39Nb8B40ybX0shpPyo-91" value="" style="endArrow=none;html=1;rounded=0;" parent="1" edge="1">
          <mxGeometry width="50" height="50" relative="1" as="geometry">
            <mxPoint x="1789" y="320" as="sourcePoint" />
            <mxPoint x="1847.7635522288779" y="295.81480690701835" as="targetPoint" />
          </mxGeometry>
        </mxCell>
        <mxCell id="YZ39Nb8B40ybX0shpPyo-92" value="" style="ellipse;whiteSpace=wrap;html=1;" parent="1" vertex="1">
          <mxGeometry x="1739" y="220" width="100" height="60" as="geometry" />
        </mxCell>
        <mxCell id="YZ39Nb8B40ybX0shpPyo-93" value="" style="ellipse;whiteSpace=wrap;html=1;" parent="1" vertex="1">
          <mxGeometry x="1839" y="250" width="100" height="60" as="geometry" />
        </mxCell>
        <mxCell id="YZ39Nb8B40ybX0shpPyo-94" value="" style="ellipse;whiteSpace=wrap;html=1;" parent="1" vertex="1">
          <mxGeometry x="1649" y="250" width="100" height="60" as="geometry" />
        </mxCell>
        <mxCell id="YZ39Nb8B40ybX0shpPyo-95" value="" style="rounded=0;whiteSpace=wrap;html=1;" parent="1" vertex="1">
          <mxGeometry x="2040" y="110" width="140" height="70" as="geometry" />
        </mxCell>
        <mxCell id="YZ39Nb8B40ybX0shpPyo-96" value="" style="endArrow=none;html=1;rounded=0;" parent="1" edge="1">
          <mxGeometry width="50" height="50" relative="1" as="geometry">
            <mxPoint x="2109.71" y="110" as="sourcePoint" />
            <mxPoint x="2109.71" y="60" as="targetPoint" />
          </mxGeometry>
        </mxCell>
        <mxCell id="YZ39Nb8B40ybX0shpPyo-97" value="" style="endArrow=none;html=1;rounded=0;" parent="1" edge="1">
          <mxGeometry width="50" height="50" relative="1" as="geometry">
            <mxPoint x="2110" y="110" as="sourcePoint" />
            <mxPoint x="2052.1759845151682" y="83.79843881247507" as="targetPoint" />
          </mxGeometry>
        </mxCell>
        <mxCell id="YZ39Nb8B40ybX0shpPyo-98" value="" style="endArrow=none;html=1;rounded=0;" parent="1" edge="1">
          <mxGeometry width="50" height="50" relative="1" as="geometry">
            <mxPoint x="2110" y="110" as="sourcePoint" />
            <mxPoint x="2168.763552228878" y="85.81480690701835" as="targetPoint" />
          </mxGeometry>
        </mxCell>
        <mxCell id="YZ39Nb8B40ybX0shpPyo-99" value="" style="ellipse;whiteSpace=wrap;html=1;" parent="1" vertex="1">
          <mxGeometry x="2060" y="10" width="100" height="60" as="geometry" />
        </mxCell>
        <mxCell id="YZ39Nb8B40ybX0shpPyo-100" value="" style="ellipse;whiteSpace=wrap;html=1;" parent="1" vertex="1">
          <mxGeometry x="2160" y="40" width="100" height="60" as="geometry" />
        </mxCell>
        <mxCell id="YZ39Nb8B40ybX0shpPyo-101" value="" style="ellipse;whiteSpace=wrap;html=1;" parent="1" vertex="1">
          <mxGeometry x="1970" y="40" width="100" height="60" as="geometry" />
        </mxCell>
        <mxCell id="YZ39Nb8B40ybX0shpPyo-109" value="" style="rounded=0;whiteSpace=wrap;html=1;" parent="1" vertex="1">
          <mxGeometry x="2050" y="330" width="140" height="70" as="geometry" />
        </mxCell>
        <mxCell id="YZ39Nb8B40ybX0shpPyo-110" value="" style="endArrow=none;html=1;rounded=0;" parent="1" edge="1">
          <mxGeometry width="50" height="50" relative="1" as="geometry">
            <mxPoint x="2119.71" y="330" as="sourcePoint" />
            <mxPoint x="2119.71" y="280" as="targetPoint" />
          </mxGeometry>
        </mxCell>
        <mxCell id="YZ39Nb8B40ybX0shpPyo-111" value="" style="endArrow=none;html=1;rounded=0;" parent="1" edge="1">
          <mxGeometry width="50" height="50" relative="1" as="geometry">
            <mxPoint x="2120" y="330" as="sourcePoint" />
            <mxPoint x="2062.1759845151682" y="303.79843881247507" as="targetPoint" />
          </mxGeometry>
        </mxCell>
        <mxCell id="YZ39Nb8B40ybX0shpPyo-112" value="" style="endArrow=none;html=1;rounded=0;" parent="1" edge="1">
          <mxGeometry width="50" height="50" relative="1" as="geometry">
            <mxPoint x="2120" y="330" as="sourcePoint" />
            <mxPoint x="2178.763552228878" y="305.81480690701835" as="targetPoint" />
          </mxGeometry>
        </mxCell>
        <mxCell id="YZ39Nb8B40ybX0shpPyo-113" value="" style="ellipse;whiteSpace=wrap;html=1;" parent="1" vertex="1">
          <mxGeometry x="2070" y="230" width="100" height="60" as="geometry" />
        </mxCell>
        <mxCell id="YZ39Nb8B40ybX0shpPyo-114" value="" style="ellipse;whiteSpace=wrap;html=1;" parent="1" vertex="1">
          <mxGeometry x="2170" y="260" width="100" height="60" as="geometry" />
        </mxCell>
        <mxCell id="YZ39Nb8B40ybX0shpPyo-115" value="" style="ellipse;whiteSpace=wrap;html=1;" parent="1" vertex="1">
          <mxGeometry x="1980" y="260" width="100" height="60" as="geometry" />
        </mxCell>
        <mxCell id="YZ39Nb8B40ybX0shpPyo-116" value="" style="rounded=0;whiteSpace=wrap;html=1;" parent="1" vertex="1">
          <mxGeometry x="2360" y="110" width="140" height="70" as="geometry" />
        </mxCell>
        <mxCell id="YZ39Nb8B40ybX0shpPyo-117" value="" style="endArrow=none;html=1;rounded=0;" parent="1" edge="1">
          <mxGeometry width="50" height="50" relative="1" as="geometry">
            <mxPoint x="2429.71" y="110" as="sourcePoint" />
            <mxPoint x="2429.71" y="60" as="targetPoint" />
          </mxGeometry>
        </mxCell>
        <mxCell id="YZ39Nb8B40ybX0shpPyo-118" value="" style="endArrow=none;html=1;rounded=0;" parent="1" edge="1">
          <mxGeometry width="50" height="50" relative="1" as="geometry">
            <mxPoint x="2430" y="110" as="sourcePoint" />
            <mxPoint x="2372.1759845151682" y="83.79843881247507" as="targetPoint" />
          </mxGeometry>
        </mxCell>
        <mxCell id="YZ39Nb8B40ybX0shpPyo-119" value="" style="endArrow=none;html=1;rounded=0;" parent="1" edge="1">
          <mxGeometry width="50" height="50" relative="1" as="geometry">
            <mxPoint x="2430" y="110" as="sourcePoint" />
            <mxPoint x="2488.763552228878" y="85.81480690701835" as="targetPoint" />
          </mxGeometry>
        </mxCell>
        <mxCell id="YZ39Nb8B40ybX0shpPyo-120" value="" style="ellipse;whiteSpace=wrap;html=1;" parent="1" vertex="1">
          <mxGeometry x="2380" y="10" width="100" height="60" as="geometry" />
        </mxCell>
        <mxCell id="YZ39Nb8B40ybX0shpPyo-121" value="" style="ellipse;whiteSpace=wrap;html=1;" parent="1" vertex="1">
          <mxGeometry x="2480" y="40" width="100" height="60" as="geometry" />
        </mxCell>
        <mxCell id="YZ39Nb8B40ybX0shpPyo-122" value="" style="ellipse;whiteSpace=wrap;html=1;" parent="1" vertex="1">
          <mxGeometry x="2290" y="40" width="100" height="60" as="geometry" />
        </mxCell>
        <mxCell id="YZ39Nb8B40ybX0shpPyo-123" value="" style="rounded=0;whiteSpace=wrap;html=1;" parent="1" vertex="1">
          <mxGeometry x="2380" y="330" width="140" height="70" as="geometry" />
        </mxCell>
        <mxCell id="YZ39Nb8B40ybX0shpPyo-124" value="" style="endArrow=none;html=1;rounded=0;" parent="1" edge="1">
          <mxGeometry width="50" height="50" relative="1" as="geometry">
            <mxPoint x="2449.71" y="330" as="sourcePoint" />
            <mxPoint x="2449.71" y="280" as="targetPoint" />
          </mxGeometry>
        </mxCell>
        <mxCell id="YZ39Nb8B40ybX0shpPyo-125" value="" style="endArrow=none;html=1;rounded=0;" parent="1" edge="1">
          <mxGeometry width="50" height="50" relative="1" as="geometry">
            <mxPoint x="2450" y="330" as="sourcePoint" />
            <mxPoint x="2392.1759845151682" y="303.79843881247507" as="targetPoint" />
          </mxGeometry>
        </mxCell>
        <mxCell id="YZ39Nb8B40ybX0shpPyo-126" value="" style="endArrow=none;html=1;rounded=0;" parent="1" edge="1">
          <mxGeometry width="50" height="50" relative="1" as="geometry">
            <mxPoint x="2450" y="330" as="sourcePoint" />
            <mxPoint x="2508.763552228878" y="305.81480690701835" as="targetPoint" />
          </mxGeometry>
        </mxCell>
        <mxCell id="YZ39Nb8B40ybX0shpPyo-127" value="" style="ellipse;whiteSpace=wrap;html=1;" parent="1" vertex="1">
          <mxGeometry x="2400" y="230" width="100" height="60" as="geometry" />
        </mxCell>
        <mxCell id="YZ39Nb8B40ybX0shpPyo-128" value="" style="ellipse;whiteSpace=wrap;html=1;" parent="1" vertex="1">
          <mxGeometry x="2500" y="260" width="100" height="60" as="geometry" />
        </mxCell>
        <mxCell id="YZ39Nb8B40ybX0shpPyo-129" value="" style="ellipse;whiteSpace=wrap;html=1;" parent="1" vertex="1">
          <mxGeometry x="2310" y="260" width="100" height="60" as="geometry" />
        </mxCell>
        <mxCell id="YZ39Nb8B40ybX0shpPyo-130" value="" style="rounded=0;whiteSpace=wrap;html=1;" parent="1" vertex="1">
          <mxGeometry x="2675" y="110" width="140" height="70" as="geometry" />
        </mxCell>
        <mxCell id="YZ39Nb8B40ybX0shpPyo-131" value="" style="endArrow=none;html=1;rounded=0;" parent="1" edge="1">
          <mxGeometry width="50" height="50" relative="1" as="geometry">
            <mxPoint x="2744.71" y="110" as="sourcePoint" />
            <mxPoint x="2744.71" y="60" as="targetPoint" />
          </mxGeometry>
        </mxCell>
        <mxCell id="YZ39Nb8B40ybX0shpPyo-132" value="" style="endArrow=none;html=1;rounded=0;" parent="1" edge="1">
          <mxGeometry width="50" height="50" relative="1" as="geometry">
            <mxPoint x="2745" y="110" as="sourcePoint" />
            <mxPoint x="2687.1759845151682" y="83.79843881247507" as="targetPoint" />
          </mxGeometry>
        </mxCell>
        <mxCell id="YZ39Nb8B40ybX0shpPyo-133" value="" style="endArrow=none;html=1;rounded=0;" parent="1" edge="1">
          <mxGeometry width="50" height="50" relative="1" as="geometry">
            <mxPoint x="2745" y="110" as="sourcePoint" />
            <mxPoint x="2803.763552228878" y="85.81480690701835" as="targetPoint" />
          </mxGeometry>
        </mxCell>
        <mxCell id="YZ39Nb8B40ybX0shpPyo-134" value="" style="ellipse;whiteSpace=wrap;html=1;" parent="1" vertex="1">
          <mxGeometry x="2695" y="10" width="100" height="60" as="geometry" />
        </mxCell>
        <mxCell id="YZ39Nb8B40ybX0shpPyo-135" value="" style="ellipse;whiteSpace=wrap;html=1;" parent="1" vertex="1">
          <mxGeometry x="2795" y="40" width="100" height="60" as="geometry" />
        </mxCell>
        <mxCell id="YZ39Nb8B40ybX0shpPyo-136" value="" style="ellipse;whiteSpace=wrap;html=1;" parent="1" vertex="1">
          <mxGeometry x="2605" y="40" width="100" height="60" as="geometry" />
        </mxCell>
        <mxCell id="YZ39Nb8B40ybX0shpPyo-137" value="" style="rounded=0;whiteSpace=wrap;html=1;" parent="1" vertex="1">
          <mxGeometry x="2710" y="320" width="140" height="70" as="geometry" />
        </mxCell>
        <mxCell id="YZ39Nb8B40ybX0shpPyo-138" value="" style="endArrow=none;html=1;rounded=0;" parent="1" edge="1">
          <mxGeometry width="50" height="50" relative="1" as="geometry">
            <mxPoint x="2779.71" y="320" as="sourcePoint" />
            <mxPoint x="2779.71" y="270" as="targetPoint" />
          </mxGeometry>
        </mxCell>
        <mxCell id="YZ39Nb8B40ybX0shpPyo-139" value="" style="endArrow=none;html=1;rounded=0;" parent="1" edge="1">
          <mxGeometry width="50" height="50" relative="1" as="geometry">
            <mxPoint x="2780" y="320" as="sourcePoint" />
            <mxPoint x="2722.1759845151682" y="293.79843881247507" as="targetPoint" />
          </mxGeometry>
        </mxCell>
        <mxCell id="YZ39Nb8B40ybX0shpPyo-140" value="" style="endArrow=none;html=1;rounded=0;" parent="1" edge="1">
          <mxGeometry width="50" height="50" relative="1" as="geometry">
            <mxPoint x="2780" y="320" as="sourcePoint" />
            <mxPoint x="2838.763552228878" y="295.81480690701835" as="targetPoint" />
          </mxGeometry>
        </mxCell>
        <mxCell id="YZ39Nb8B40ybX0shpPyo-141" value="" style="ellipse;whiteSpace=wrap;html=1;" parent="1" vertex="1">
          <mxGeometry x="2730" y="220" width="100" height="60" as="geometry" />
        </mxCell>
        <mxCell id="YZ39Nb8B40ybX0shpPyo-142" value="" style="ellipse;whiteSpace=wrap;html=1;" parent="1" vertex="1">
          <mxGeometry x="2830" y="250" width="100" height="60" as="geometry" />
        </mxCell>
        <mxCell id="YZ39Nb8B40ybX0shpPyo-143" value="" style="ellipse;whiteSpace=wrap;html=1;" parent="1" vertex="1">
          <mxGeometry x="2640" y="250" width="100" height="60" as="geometry" />
        </mxCell>
        <mxCell id="YZ39Nb8B40ybX0shpPyo-144" value="" style="rounded=0;whiteSpace=wrap;html=1;" parent="1" vertex="1">
          <mxGeometry x="2990" y="110" width="140" height="70" as="geometry" />
        </mxCell>
        <mxCell id="YZ39Nb8B40ybX0shpPyo-145" value="" style="endArrow=none;html=1;rounded=0;" parent="1" edge="1">
          <mxGeometry width="50" height="50" relative="1" as="geometry">
            <mxPoint x="3059.71" y="110" as="sourcePoint" />
            <mxPoint x="3059.71" y="60" as="targetPoint" />
          </mxGeometry>
        </mxCell>
        <mxCell id="YZ39Nb8B40ybX0shpPyo-146" value="" style="endArrow=none;html=1;rounded=0;" parent="1" edge="1">
          <mxGeometry width="50" height="50" relative="1" as="geometry">
            <mxPoint x="3060" y="110" as="sourcePoint" />
            <mxPoint x="3002.1759845151682" y="83.79843881247507" as="targetPoint" />
          </mxGeometry>
        </mxCell>
        <mxCell id="YZ39Nb8B40ybX0shpPyo-147" value="" style="endArrow=none;html=1;rounded=0;" parent="1" edge="1">
          <mxGeometry width="50" height="50" relative="1" as="geometry">
            <mxPoint x="3060" y="110" as="sourcePoint" />
            <mxPoint x="3118.763552228878" y="85.81480690701835" as="targetPoint" />
          </mxGeometry>
        </mxCell>
        <mxCell id="YZ39Nb8B40ybX0shpPyo-148" value="" style="ellipse;whiteSpace=wrap;html=1;" parent="1" vertex="1">
          <mxGeometry x="3010" y="10" width="100" height="60" as="geometry" />
        </mxCell>
        <mxCell id="YZ39Nb8B40ybX0shpPyo-149" value="" style="ellipse;whiteSpace=wrap;html=1;" parent="1" vertex="1">
          <mxGeometry x="3110" y="40" width="100" height="60" as="geometry" />
        </mxCell>
        <mxCell id="YZ39Nb8B40ybX0shpPyo-150" value="" style="ellipse;whiteSpace=wrap;html=1;" parent="1" vertex="1">
          <mxGeometry x="2920" y="40" width="100" height="60" as="geometry" />
        </mxCell>
        <mxCell id="YZ39Nb8B40ybX0shpPyo-151" value="" style="rounded=0;whiteSpace=wrap;html=1;" parent="1" vertex="1">
          <mxGeometry x="3010" y="320" width="140" height="70" as="geometry" />
        </mxCell>
        <mxCell id="YZ39Nb8B40ybX0shpPyo-152" value="" style="endArrow=none;html=1;rounded=0;" parent="1" edge="1">
          <mxGeometry width="50" height="50" relative="1" as="geometry">
            <mxPoint x="3079.71" y="320" as="sourcePoint" />
            <mxPoint x="3079.71" y="270" as="targetPoint" />
          </mxGeometry>
        </mxCell>
        <mxCell id="YZ39Nb8B40ybX0shpPyo-153" value="" style="endArrow=none;html=1;rounded=0;" parent="1" edge="1">
          <mxGeometry width="50" height="50" relative="1" as="geometry">
            <mxPoint x="3080" y="320" as="sourcePoint" />
            <mxPoint x="3022.1759845151682" y="293.79843881247507" as="targetPoint" />
          </mxGeometry>
        </mxCell>
        <mxCell id="YZ39Nb8B40ybX0shpPyo-154" value="" style="endArrow=none;html=1;rounded=0;" parent="1" edge="1">
          <mxGeometry width="50" height="50" relative="1" as="geometry">
            <mxPoint x="3080" y="320" as="sourcePoint" />
            <mxPoint x="3138.763552228878" y="295.81480690701835" as="targetPoint" />
          </mxGeometry>
        </mxCell>
        <mxCell id="YZ39Nb8B40ybX0shpPyo-155" value="" style="ellipse;whiteSpace=wrap;html=1;" parent="1" vertex="1">
          <mxGeometry x="3030" y="220" width="100" height="60" as="geometry" />
        </mxCell>
        <mxCell id="YZ39Nb8B40ybX0shpPyo-156" value="" style="ellipse;whiteSpace=wrap;html=1;" parent="1" vertex="1">
          <mxGeometry x="3130" y="250" width="100" height="60" as="geometry" />
        </mxCell>
        <mxCell id="YZ39Nb8B40ybX0shpPyo-157" value="" style="ellipse;whiteSpace=wrap;html=1;" parent="1" vertex="1">
          <mxGeometry x="2940" y="250" width="100" height="60" as="geometry" />
        </mxCell>
        <mxCell id="YZ39Nb8B40ybX0shpPyo-166" value="" style="rounded=0;whiteSpace=wrap;html=1;" parent="1" vertex="1">
          <mxGeometry x="3300" y="110" width="140" height="70" as="geometry" />
        </mxCell>
        <mxCell id="YZ39Nb8B40ybX0shpPyo-167" value="" style="endArrow=none;html=1;rounded=0;" parent="1" edge="1">
          <mxGeometry width="50" height="50" relative="1" as="geometry">
            <mxPoint x="3369.71" y="110" as="sourcePoint" />
            <mxPoint x="3369.71" y="60" as="targetPoint" />
          </mxGeometry>
        </mxCell>
        <mxCell id="YZ39Nb8B40ybX0shpPyo-168" value="" style="endArrow=none;html=1;rounded=0;" parent="1" edge="1">
          <mxGeometry width="50" height="50" relative="1" as="geometry">
            <mxPoint x="3370" y="110" as="sourcePoint" />
            <mxPoint x="3312.1759845151682" y="83.79843881247507" as="targetPoint" />
          </mxGeometry>
        </mxCell>
        <mxCell id="YZ39Nb8B40ybX0shpPyo-169" value="" style="endArrow=none;html=1;rounded=0;" parent="1" edge="1">
          <mxGeometry width="50" height="50" relative="1" as="geometry">
            <mxPoint x="3370" y="110" as="sourcePoint" />
            <mxPoint x="3428.763552228878" y="85.81480690701835" as="targetPoint" />
          </mxGeometry>
        </mxCell>
        <mxCell id="YZ39Nb8B40ybX0shpPyo-170" value="" style="ellipse;whiteSpace=wrap;html=1;" parent="1" vertex="1">
          <mxGeometry x="3320" y="10" width="100" height="60" as="geometry" />
        </mxCell>
        <mxCell id="YZ39Nb8B40ybX0shpPyo-171" value="" style="ellipse;whiteSpace=wrap;html=1;" parent="1" vertex="1">
          <mxGeometry x="3420" y="40" width="100" height="60" as="geometry" />
        </mxCell>
        <mxCell id="YZ39Nb8B40ybX0shpPyo-172" value="" style="ellipse;whiteSpace=wrap;html=1;" parent="1" vertex="1">
          <mxGeometry x="3230" y="40" width="100" height="60" as="geometry" />
        </mxCell>
        <mxCell id="YZ39Nb8B40ybX0shpPyo-173" value="" style="rounded=0;whiteSpace=wrap;html=1;" parent="1" vertex="1">
          <mxGeometry x="3330" y="310" width="140" height="70" as="geometry" />
        </mxCell>
        <mxCell id="YZ39Nb8B40ybX0shpPyo-174" value="" style="endArrow=none;html=1;rounded=0;" parent="1" edge="1">
          <mxGeometry width="50" height="50" relative="1" as="geometry">
            <mxPoint x="3399.71" y="310" as="sourcePoint" />
            <mxPoint x="3399.71" y="260" as="targetPoint" />
          </mxGeometry>
        </mxCell>
        <mxCell id="YZ39Nb8B40ybX0shpPyo-175" value="" style="endArrow=none;html=1;rounded=0;" parent="1" edge="1">
          <mxGeometry width="50" height="50" relative="1" as="geometry">
            <mxPoint x="3400" y="310" as="sourcePoint" />
            <mxPoint x="3342.1759845151682" y="283.79843881247507" as="targetPoint" />
          </mxGeometry>
        </mxCell>
        <mxCell id="YZ39Nb8B40ybX0shpPyo-176" value="" style="endArrow=none;html=1;rounded=0;" parent="1" edge="1">
          <mxGeometry width="50" height="50" relative="1" as="geometry">
            <mxPoint x="3400" y="310" as="sourcePoint" />
            <mxPoint x="3458.763552228878" y="285.81480690701835" as="targetPoint" />
          </mxGeometry>
        </mxCell>
        <mxCell id="YZ39Nb8B40ybX0shpPyo-177" value="" style="ellipse;whiteSpace=wrap;html=1;" parent="1" vertex="1">
          <mxGeometry x="3350" y="210" width="100" height="60" as="geometry" />
        </mxCell>
        <mxCell id="YZ39Nb8B40ybX0shpPyo-178" value="" style="ellipse;whiteSpace=wrap;html=1;" parent="1" vertex="1">
          <mxGeometry x="3450" y="240" width="100" height="60" as="geometry" />
        </mxCell>
        <mxCell id="YZ39Nb8B40ybX0shpPyo-179" value="" style="ellipse;whiteSpace=wrap;html=1;" parent="1" vertex="1">
          <mxGeometry x="3260" y="240" width="100" height="60" as="geometry" />
        </mxCell>
        <mxCell id="YZ39Nb8B40ybX0shpPyo-180" value="" style="rounded=0;whiteSpace=wrap;html=1;" parent="1" vertex="1">
          <mxGeometry x="3632" y="100" width="140" height="70" as="geometry" />
        </mxCell>
        <mxCell id="YZ39Nb8B40ybX0shpPyo-181" value="" style="endArrow=none;html=1;rounded=0;" parent="1" edge="1">
          <mxGeometry width="50" height="50" relative="1" as="geometry">
            <mxPoint x="3701.71" y="100" as="sourcePoint" />
            <mxPoint x="3701.71" y="50" as="targetPoint" />
          </mxGeometry>
        </mxCell>
        <mxCell id="YZ39Nb8B40ybX0shpPyo-182" value="" style="endArrow=none;html=1;rounded=0;" parent="1" edge="1">
          <mxGeometry width="50" height="50" relative="1" as="geometry">
            <mxPoint x="3702" y="100" as="sourcePoint" />
            <mxPoint x="3644.1759845151682" y="73.79843881247507" as="targetPoint" />
          </mxGeometry>
        </mxCell>
        <mxCell id="YZ39Nb8B40ybX0shpPyo-183" value="" style="endArrow=none;html=1;rounded=0;" parent="1" edge="1">
          <mxGeometry width="50" height="50" relative="1" as="geometry">
            <mxPoint x="3702" y="100" as="sourcePoint" />
            <mxPoint x="3760.763552228878" y="75.81480690701835" as="targetPoint" />
          </mxGeometry>
        </mxCell>
        <mxCell id="YZ39Nb8B40ybX0shpPyo-184" value="" style="ellipse;whiteSpace=wrap;html=1;" parent="1" vertex="1">
          <mxGeometry x="3652" width="100" height="60" as="geometry" />
        </mxCell>
        <mxCell id="YZ39Nb8B40ybX0shpPyo-185" value="" style="ellipse;whiteSpace=wrap;html=1;" parent="1" vertex="1">
          <mxGeometry x="3752" y="30" width="100" height="60" as="geometry" />
        </mxCell>
        <mxCell id="YZ39Nb8B40ybX0shpPyo-186" value="" style="ellipse;whiteSpace=wrap;html=1;" parent="1" vertex="1">
          <mxGeometry x="3562" y="30" width="100" height="60" as="geometry" />
        </mxCell>
        <mxCell id="YZ39Nb8B40ybX0shpPyo-187" value="" style="rounded=0;whiteSpace=wrap;html=1;" parent="1" vertex="1">
          <mxGeometry x="3662" y="300" width="140" height="70" as="geometry" />
        </mxCell>
        <mxCell id="YZ39Nb8B40ybX0shpPyo-188" value="" style="endArrow=none;html=1;rounded=0;" parent="1" edge="1">
          <mxGeometry width="50" height="50" relative="1" as="geometry">
            <mxPoint x="3731.71" y="300" as="sourcePoint" />
            <mxPoint x="3731.71" y="250" as="targetPoint" />
          </mxGeometry>
        </mxCell>
        <mxCell id="YZ39Nb8B40ybX0shpPyo-189" value="" style="endArrow=none;html=1;rounded=0;" parent="1" edge="1">
          <mxGeometry width="50" height="50" relative="1" as="geometry">
            <mxPoint x="3732" y="300" as="sourcePoint" />
            <mxPoint x="3674.1759845151682" y="273.79843881247507" as="targetPoint" />
          </mxGeometry>
        </mxCell>
        <mxCell id="YZ39Nb8B40ybX0shpPyo-190" value="" style="endArrow=none;html=1;rounded=0;" parent="1" edge="1">
          <mxGeometry width="50" height="50" relative="1" as="geometry">
            <mxPoint x="3732" y="300" as="sourcePoint" />
            <mxPoint x="3790.763552228878" y="275.81480690701835" as="targetPoint" />
          </mxGeometry>
        </mxCell>
        <mxCell id="YZ39Nb8B40ybX0shpPyo-191" value="" style="ellipse;whiteSpace=wrap;html=1;" parent="1" vertex="1">
          <mxGeometry x="3682" y="200" width="100" height="60" as="geometry" />
        </mxCell>
        <mxCell id="YZ39Nb8B40ybX0shpPyo-192" value="" style="ellipse;whiteSpace=wrap;html=1;" parent="1" vertex="1">
          <mxGeometry x="3782" y="230" width="100" height="60" as="geometry" />
        </mxCell>
        <mxCell id="YZ39Nb8B40ybX0shpPyo-193" value="" style="ellipse;whiteSpace=wrap;html=1;" parent="1" vertex="1">
          <mxGeometry x="3592" y="230" width="100" height="60" as="geometry" />
        </mxCell>
        <mxCell id="YZ39Nb8B40ybX0shpPyo-194" value="" style="rounded=0;whiteSpace=wrap;html=1;" parent="1" vertex="1">
          <mxGeometry x="4040" y="200" width="140" height="70" as="geometry" />
        </mxCell>
        <mxCell id="YZ39Nb8B40ybX0shpPyo-195" value="" style="endArrow=none;html=1;rounded=0;" parent="1" edge="1">
          <mxGeometry width="50" height="50" relative="1" as="geometry">
            <mxPoint x="4109.71" y="200" as="sourcePoint" />
            <mxPoint x="4109.71" y="150" as="targetPoint" />
          </mxGeometry>
        </mxCell>
        <mxCell id="YZ39Nb8B40ybX0shpPyo-196" value="" style="endArrow=none;html=1;rounded=0;" parent="1" edge="1">
          <mxGeometry width="50" height="50" relative="1" as="geometry">
            <mxPoint x="4110" y="200" as="sourcePoint" />
            <mxPoint x="4052.1759845151682" y="173.79843881247507" as="targetPoint" />
          </mxGeometry>
        </mxCell>
        <mxCell id="YZ39Nb8B40ybX0shpPyo-197" value="" style="endArrow=none;html=1;rounded=0;" parent="1" edge="1">
          <mxGeometry width="50" height="50" relative="1" as="geometry">
            <mxPoint x="4110" y="200" as="sourcePoint" />
            <mxPoint x="4168.763552228878" y="175.81480690701835" as="targetPoint" />
          </mxGeometry>
        </mxCell>
        <mxCell id="YZ39Nb8B40ybX0shpPyo-198" value="" style="ellipse;whiteSpace=wrap;html=1;" parent="1" vertex="1">
          <mxGeometry x="4060" y="100" width="100" height="60" as="geometry" />
        </mxCell>
        <mxCell id="YZ39Nb8B40ybX0shpPyo-199" value="" style="ellipse;whiteSpace=wrap;html=1;" parent="1" vertex="1">
          <mxGeometry x="4160" y="130" width="100" height="60" as="geometry" />
        </mxCell>
        <mxCell id="YZ39Nb8B40ybX0shpPyo-200" value="" style="ellipse;whiteSpace=wrap;html=1;" parent="1" vertex="1">
          <mxGeometry x="3970" y="130" width="100" height="60" as="geometry" />
        </mxCell>
      </root>
    </mxGraphModel>
  </diagram>
</mxfile>
